<svg width="25" height="25" viewBox="0 0 25 25" fill="none" xmlns="http://www.w3.org/2000/svg">
<path d="M8.5 7.87012V3.87012M16.5 7.87012V3.87012M7.5 11.8701H17.5M5.5 21.8701H19.5C20.0304 21.8701 20.5391 21.6594 20.9142 21.2843C21.2893 20.9093 21.5 20.4006 21.5 19.8701V7.87012C21.5 7.33968 21.2893 6.83098 20.9142 6.4559C20.5391 6.08083 20.0304 5.87012 19.5 5.87012H5.5C4.96957 5.87012 4.46086 6.08083 4.08579 6.4559C3.71071 6.83098 3.5 7.33968 3.5 7.87012V19.8701C3.5 20.4006 3.71071 20.9093 4.08579 21.2843C4.46086 21.6594 4.96957 21.8701 5.5 21.8701Z" stroke="#060718" stroke-width="2" stroke-linecap="round" stroke-linejoin="round"/>
</svg>
