<svg width="25" height="25" viewBox="0 0 25 25" fill="none" xmlns="http://www.w3.org/2000/svg">
<path d="M12.5 8.87012V12.8701L15.5 15.8701M21.5 12.8701C21.5 14.052 21.2672 15.2223 20.8149 16.3143C20.3626 17.4062 19.6997 18.3984 18.864 19.2341C18.0282 20.0698 17.0361 20.7327 15.9442 21.185C14.8522 21.6373 13.6819 21.8701 12.5 21.8701C11.3181 21.8701 10.1478 21.6373 9.05585 21.185C7.96392 20.7327 6.97177 20.0698 6.13604 19.2341C5.30031 18.3984 4.63738 17.4062 4.18508 16.3143C3.73279 15.2223 3.5 14.052 3.5 12.8701C3.5 10.4832 4.44821 8.19398 6.13604 6.50616C7.82387 4.81833 10.1131 3.87012 12.5 3.87012C14.8869 3.87012 17.1761 4.81833 18.864 6.50616C20.5518 8.19398 21.5 10.4832 21.5 12.8701Z" stroke="#060718" stroke-width="2" stroke-linecap="round" stroke-linejoin="round"/>
</svg>
