<svg width="52" height="52" viewBox="0 0 52 52" fill="none" xmlns="http://www.w3.org/2000/svg">
<path d="M37.0866 30.5922C37.6896 29.1363 38 27.5759 38 26C38 22.8174 36.7357 19.7652 34.4853 17.5147C32.2348 15.2643 29.1826 14 26 14C22.8174 14 19.7652 15.2643 17.5147 17.5147C15.2643 19.7652 14 22.8174 14 26C14 27.5759 14.3104 29.1363 14.9134 30.5922C15.5165 32.0481 16.4004 33.371 17.5147 34.4853C18.629 35.5996 19.9519 36.4835 21.4078 37.0866C22.8637 37.6896 24.4241 38 26 38C27.5759 38 29.1363 37.6896 30.5922 37.0866C32.0481 36.4835 33.371 35.5996 34.4853 34.4853C35.5996 33.371 36.4835 32.0481 37.0866 30.5922Z" stroke="#FFFCF5" stroke-width="2" stroke-linecap="round" stroke-linejoin="round"/>
<path d="M22 23.3333C22 22.9797 22.1405 22.6406 22.3905 22.3905C22.6406 22.1405 22.9797 22 23.3333 22H28.6667C29.0203 22 29.3594 22.1405 29.6095 22.3905C29.8595 22.6406 30 22.9797 30 23.3333V28.6667C30 29.0203 29.8595 29.3594 29.6095 29.6095C29.3594 29.8595 29.0203 30 28.6667 30H23.3333C22.9797 30 22.6406 29.8595 22.3905 29.6095C22.1405 29.3594 22 29.0203 22 28.6667V23.3333Z" stroke="#FFFCF5" stroke-width="2" stroke-linecap="round" stroke-linejoin="round"/>
</svg>
