<svg width="32" height="32" viewBox="0 0 32 32" fill="none" xmlns="http://www.w3.org/2000/svg">
<path d="M27.0866 20.5922C27.6896 19.1363 28 17.5759 28 16C28 12.8174 26.7357 9.76516 24.4853 7.51472C22.2348 5.26428 19.1826 4 16 4C12.8174 4 9.76515 5.26428 7.51472 7.51472C5.26428 9.76516 4 12.8174 4 16C4 17.5759 4.31039 19.1363 4.91345 20.5922C5.5165 22.0481 6.40042 23.371 7.51472 24.4853C8.62902 25.5996 9.95189 26.4835 11.4078 27.0866C12.8637 27.6896 14.4241 28 16 28C17.5759 28 19.1363 27.6896 20.5922 27.0866C22.0481 26.4835 23.371 25.5996 24.4853 24.4853C25.5996 23.371 26.4835 22.0481 27.0866 20.5922Z" stroke="#FFFCF5" stroke-width="2" stroke-linecap="round" stroke-linejoin="round"/>
<path d="M12 13.3333C12 12.9797 12.1405 12.6406 12.3905 12.3905C12.6406 12.1405 12.9797 12 13.3333 12H18.6667C19.0203 12 19.3594 12.1405 19.6095 12.3905C19.8595 12.6406 20 12.9797 20 13.3333V18.6667C20 19.0203 19.8595 19.3594 19.6095 19.6095C19.3594 19.8595 19.0203 20 18.6667 20H13.3333C12.9797 20 12.6406 19.8595 12.3905 19.6095C12.1405 19.3594 12 19.0203 12 18.6667V13.3333Z" stroke="#FFFCF5" stroke-width="2" stroke-linecap="round" stroke-linejoin="round"/>
</svg>
