<svg width="25" height="25" viewBox="0 0 25 25" fill="none" xmlns="http://www.w3.org/2000/svg">
<path d="M9.5 12.8701H15.5M9.5 16.8701H15.5M17.5 21.8701H7.5C6.96957 21.8701 6.46086 21.6594 6.08579 21.2843C5.71071 20.9093 5.5 20.4006 5.5 19.8701V5.87012C5.5 5.33968 5.71071 4.83098 6.08579 4.4559C6.46086 4.08083 6.96957 3.87012 7.5 3.87012H13.086C13.3512 3.87017 13.6055 3.97557 13.793 4.16312L19.207 9.57712C19.3946 9.76461 19.4999 10.0189 19.5 10.2841V19.8701C19.5 20.4006 19.2893 20.9093 18.9142 21.2843C18.5391 21.6594 18.0304 21.8701 17.5 21.8701Z" stroke="#060718" stroke-width="2" stroke-linecap="round" stroke-linejoin="round"/>
</svg>
